<?xml version="1.0" encoding="utf-8"?>
<!-- Generator: Adobe Illustrator 23.0.3, SVG Export Plug-In . SVG Version: 6.00 Build 0)  -->
<svg version="1.1" id="Capa_1" xmlns="http://www.w3.org/2000/svg" xmlns:xlink="http://www.w3.org/1999/xlink" x="0px" y="0px"
	 viewBox="0 0 1052 1772" style="enable-background:new 0 0 1052 1772;" xml:space="preserve">
<style type="text/css">
	.st0{fill:none;stroke:#000000;stroke-width:10;stroke-miterlimit:10;}
</style>
<g>
	<path class="st0" d="M484,1746c0,0-6-344-35-570C424.41,984.41,190,110,186,98s16-42,43-14"/>
</g>
<g>
	<path class="st0" d="M477,1547c0,0-260-90-278-270l0,0c230,72,275.49,229.04,275.49,229.04"/>
	<path class="st0" d="M477,1532c0,0-154-105-278-255"/>
</g>
<g>
	<path class="st0" d="M440,1120c0,0-217.45-113.92-278-186"/>
	<path class="st0" d="M437,1078c0,0-44.01-71.81-151.34-101.01s-138.28-51.61-138.28-51.61S252.11,1108.82,443,1154"/>
</g>
<g>
	<path class="st0" d="M350,735c0,0-212.89-42.28-290.12-96.09"/>
	<path class="st0" d="M339.24,698.15c0,0-57.24-54.69-161.8-55.44c-104.56-0.75-138.07-13.69-138.07-13.69
		s139.24,141.55,323.58,136.75"/>
</g>
<g>
	<path class="st0" d="M474,1506c0,0,167-93,257-211"/>
	<path class="st0" d="M474,1484c0,0,36-93,139-135s131-68,131-68s-80,206-264,274"/>
</g>
<g>
	<path class="st0" d="M443,1161c0,0,148.85-144.64,174-219"/>
	<path class="st0" d="M443,1138c0,0,24.13-74.77,91.04-123.56c66.91-48.79,82.48-72.59,82.48-72.59S573.78,1099.92,453,1182"/>
</g>
<g>
	<path class="st0" d="M438,1107c0,0,1-379,345-724c0,0,97-122,118-169"/>
</g>
<g>
	<path class="st0" d="M741,423c-32-64,25-264,25-264s58,150-6,248"/>
	<path class="st0" d="M766,177c0,0-29,209-17,237"/>
</g>
<g>
	<path class="st0" d="M782.73,379.03c79.21-86.17,228.95-61.3,228.95-61.3s-178.51,129.35-265.6,103.81"/>
	<path class="st0" d="M760,407c0,0,211-86,252-89"/>
</g>
<g>
	<path class="st0" d="M340.71,699.9c-24.13-114.53,83.1-221.97,83.1-221.97s1.6,220.44-69.78,276.49"/>
	<path class="st0" d="M350.26,734.65c0,0,52.56-221.71,73.94-256.82"/>
</g>
<g>
	<path class="st0" d="M259,374c-25.19-65.91-112.15-67.5-112.15-67.5s71.2,112.2,125.67,117.28"/>
	<path class="st0" d="M267.97,412.54c0,0-99.05-95.15-121.35-105.96"/>
</g>
<g>
	<path class="st0" d="M268,396c4.32-85.25,103.25-133.5,103.25-133.5S333.77,397.77,273,424"/>
	<path class="st0" d="M268,409c0,0,81.94-125.72,103.55-146.49"/>
</g>
</svg>
